<svg width="512" height="512" viewBox="0 0 512 512" fill="none" xmlns="http://www.w3.org/2000/svg">
<rect x="73" y="72" width="365" height="369" rx="61" fill="#F3F3F3"/>
<rect x="157" y="137" width="16" height="101" rx="8" fill="#787878"/>
<rect x="114" y="195" width="16" height="101" rx="8" transform="rotate(-90 114 195)" fill="#787878"/>
<rect x="305.134" y="153.947" width="16" height="101" rx="8" transform="rotate(-45 305.134 153.947)" fill="#787878"/>
<circle cx="371.602" cy="159.604" r="12" transform="rotate(45 371.602 159.604)" fill="#787878"/>
<circle cx="322.104" cy="209.101" r="12" transform="rotate(45 322.104 209.101)" fill="#787878"/>
<rect x="126" y="357" width="16" height="78" rx="8" transform="rotate(-90 126 357)" fill="#787878"/>
<rect x="268" y="277" width="144" height="144" rx="31" fill="#75B0FF"/>
<rect x="301" y="342" width="16" height="78" rx="8" transform="rotate(-90 301 342)" fill="white"/>
<rect x="301" y="372" width="16" height="78" rx="8" transform="rotate(-90 301 372)" fill="white"/>
</svg>