<svg width="512" height="512" viewBox="0 0 512 512" fill="none" xmlns="http://www.w3.org/2000/svg">
<rect x="73" y="72" width="365" height="369" rx="61" fill="#F3F3F3"/>
<path d="M184.252 371.119H141.299L132.831 391H116.386L155.044 305.094H170.753L209.533 391H192.843L184.252 371.119ZM178.975 358.601L162.776 321.048L146.699 358.601H178.975ZM244.022 324.729C253.676 324.729 261.039 327.061 266.112 331.725C271.266 336.306 273.843 343.261 273.843 352.588V391H259.362V383.023C257.48 385.887 254.78 388.096 251.262 389.65C247.826 391.123 243.653 391.859 238.745 391.859C233.836 391.859 229.54 391.041 225.859 389.405C222.177 387.686 219.313 385.355 217.268 382.409C215.304 379.382 214.323 375.987 214.323 372.223C214.323 366.333 216.491 361.628 220.827 358.11C225.245 354.51 232.158 352.71 241.567 352.71H258.503V351.728C258.503 347.147 257.112 343.629 254.33 341.174C251.631 338.72 247.581 337.493 242.181 337.493C238.499 337.493 234.858 338.065 231.258 339.211C227.74 340.356 224.754 341.952 222.3 343.997L216.286 332.829C219.722 330.211 223.854 328.206 228.681 326.816C233.508 325.425 238.622 324.729 244.022 324.729ZM241.935 380.691C245.781 380.691 249.176 379.832 252.121 378.114C255.149 376.314 257.276 373.778 258.503 370.505V362.896H242.672C233.836 362.896 229.418 365.801 229.418 371.61C229.418 374.391 230.522 376.6 232.731 378.237C234.94 379.873 238.008 380.691 241.935 380.691Z" fill="#737373"/>
</svg>