<svg width="512" height="512" viewBox="0 0 512 512" fill="none" xmlns="http://www.w3.org/2000/svg">
<rect x="73" y="72" width="365" height="369" rx="61" fill="#F3F3F3"/>
<path d="M322.336 256C322.336 254.022 322.247 252.13 322.07 250.152L338.521 238.026C342.059 235.446 343.032 230.63 340.821 226.846L324.281 199.068C322.07 195.284 317.294 193.736 313.225 195.456L294.209 203.282C290.937 201.046 287.487 199.068 283.861 197.434L281.296 177.568C280.765 173.268 276.962 170 272.54 170H239.549C235.038 170 231.235 173.268 230.704 177.568L228.139 197.434C224.513 199.068 221.063 201.046 217.791 203.282L198.775 195.456C194.706 193.736 189.93 195.284 187.719 199.068L171.179 226.932C168.968 230.716 169.941 235.446 173.479 238.112L189.93 250.238C189.753 252.13 189.664 254.022 189.664 256C189.664 257.978 189.753 259.87 189.93 261.848L173.479 273.974C169.941 276.554 168.968 281.37 171.179 285.154L187.719 312.932C189.93 316.716 194.706 318.264 198.775 316.544L217.791 308.718C221.063 310.954 224.513 312.932 228.139 314.566L230.704 334.432C231.235 338.732 235.038 342 239.46 342H272.451C276.874 342 280.677 338.732 281.208 334.432L283.772 314.566C287.399 312.932 290.848 310.954 294.121 308.718L313.137 316.544C317.206 318.264 321.982 316.716 324.193 312.932L340.733 285.154C342.944 281.37 341.971 276.64 338.433 273.974L321.982 261.848C322.247 259.87 322.336 257.978 322.336 256ZM256.354 286.1C239.283 286.1 225.397 272.598 225.397 256C225.397 239.402 239.283 225.9 256.354 225.9C273.424 225.9 287.31 239.402 287.31 256C287.31 272.598 273.424 286.1 256.354 286.1Z" fill="#4A98FF"/>
</svg>