<svg width="512" height="512" viewBox="0 0 512 512" fill="none" xmlns="http://www.w3.org/2000/svg">
<g clip-path="url(#clip0)">
<rect x="2.77002" y="-2.81055" width="509.23" height="514.811" rx="85.1042" fill="#F3F3F3"/>
<rect x="119.962" y="87.874" width="22.3224" height="140.91" rx="11.1612" fill="#787878"/>
<rect x="59.9712" y="168.793" width="22.3224" height="140.91" rx="11.1612" transform="rotate(-90 59.9712 168.793)" fill="#787878"/>
<rect x="326.631" y="111.52" width="22.3224" height="140.91" rx="11.1612" transform="rotate(-45 326.631 111.52)" fill="#787878"/>
<circle cx="419.365" cy="119.412" r="16.7418" transform="rotate(45 419.365 119.412)" fill="#787878"/>
<circle cx="350.308" cy="188.467" r="16.7418" transform="rotate(45 350.308 188.467)" fill="#787878"/>
<rect x="76.7129" y="394.809" width="22.3224" height="108.822" rx="11.1612" transform="rotate(-90 76.7129 394.809)" fill="#787878"/>
<rect x="274.824" y="283.195" width="200.902" height="200.902" rx="43.2497" fill="#75B0FF"/>
<rect x="320.864" y="373.881" width="22.3224" height="108.822" rx="11.1612" transform="rotate(-90 320.864 373.881)" fill="white"/>
<rect x="320.864" y="415.735" width="22.3224" height="108.822" rx="11.1612" transform="rotate(-90 320.864 415.735)" fill="white"/>
</g>
<defs>
<clipPath id="clip0">
<rect width="512" height="512" fill="white"/>
</clipPath>
</defs>
</svg>
