<svg width="512" height="512" viewBox="0 0 512 512" fill="none" xmlns="http://www.w3.org/2000/svg">
<rect x="73" y="72" width="365" height="369" rx="61" fill="#F3F3F3"/>
<path fill-rule="evenodd" clip-rule="evenodd" d="M246.424 135C231.274 145.983 221.42 163.826 221.42 183.969C221.42 217.351 248.482 244.413 281.864 244.413C297.967 244.413 312.599 238.116 323.433 227.85C313.541 254.13 288.169 272.827 258.431 272.827C220.085 272.827 189 241.742 189 203.396C189 169.145 213.801 140.687 246.424 135Z" fill="#4A98FF"/>
<circle cx="285.436" cy="179.299" r="38.1896" fill="#4A98FF"/>
<path d="M251.612 353.54C254.005 356.69 258.742 356.69 261.135 353.54L281.45 326.799C284.441 322.861 281.633 317.202 276.688 317.202H236.059C231.115 317.202 228.307 322.861 231.298 326.799L251.612 353.54Z" fill="#C4C4C4"/>
<rect x="220.495" y="362.798" width="71.7576" height="14.202" rx="7.10101" fill="#C4C4C4"/>
</svg>