<svg width="512" height="512" viewBox="0 0 512 512" fill="none" xmlns="http://www.w3.org/2000/svg">
<rect x="1" width="507" height="512" rx="85.1024" fill="#5AA6FF"/>
<path d="M347.854 256.702C347.854 253.943 347.73 251.303 347.484 248.543L370.435 231.626C375.371 228.027 376.728 221.308 373.643 216.029L350.568 177.275C347.484 171.996 340.82 169.836 335.144 172.236L308.614 183.154C304.049 180.035 299.236 177.275 294.177 174.995L290.599 147.28C289.858 141.281 284.552 136.722 278.382 136.722H232.356C226.063 136.722 220.757 141.281 220.017 147.28L216.438 174.995C211.379 177.275 206.567 180.035 202.001 183.154L175.471 172.236C169.795 169.836 163.132 171.996 160.047 177.275L136.972 216.149C133.887 221.428 135.244 228.027 140.18 231.746L163.132 248.663C162.885 251.303 162.761 253.943 162.761 256.702C162.761 259.462 162.885 262.101 163.132 264.861L140.18 281.778C135.244 285.378 133.887 292.096 136.972 297.376L160.047 336.129C163.132 341.408 169.795 343.568 175.471 341.168L202.001 330.25C206.567 333.37 211.379 336.129 216.438 338.409L220.017 366.124C220.757 372.123 226.063 376.683 232.233 376.683H278.259C284.429 376.683 289.735 372.123 290.475 366.124L294.054 338.409C299.113 336.129 303.925 333.37 308.491 330.25L335.021 341.168C340.697 343.568 347.36 341.408 350.445 336.129L373.52 297.376C376.605 292.096 375.247 285.497 370.312 281.778L347.36 264.861C347.73 262.101 347.854 259.462 347.854 256.702ZM255.801 298.695C231.986 298.695 212.613 279.858 212.613 256.702C212.613 233.546 231.986 214.709 255.801 214.709C279.616 214.709 298.989 233.546 298.989 256.702C298.989 279.858 279.616 298.695 255.801 298.695Z" fill="white"/>
</svg>
