<svg width="512" height="512" viewBox="0 0 512 512" fill="none" xmlns="http://www.w3.org/2000/svg">
<g clip-path="url(#clip0)">
<circle cx="256" cy="256" r="256" fill="#EA6262"/>
<path fill-rule="evenodd" clip-rule="evenodd" d="M341.749 168.592C348.086 174.929 348.086 185.203 341.749 191.54L278.12 255.169L341.751 318.799C348.088 325.136 348.088 335.41 341.751 341.747C335.414 348.084 325.139 348.084 318.802 341.747L255.172 278.117L191.542 341.747C185.205 348.084 174.931 348.084 168.594 341.747C162.257 335.41 162.257 325.136 168.594 318.799L232.224 255.169L168.595 191.54C162.258 185.203 162.258 174.929 168.595 168.592C174.932 162.255 185.206 162.255 191.543 168.592L255.172 232.22L318.801 168.592C325.138 162.255 335.412 162.255 341.749 168.592Z" fill="white"/>
</g>
<defs>
<clipPath id="clip0">
<rect width="512" height="512" fill="white"/>
</clipPath>
</defs>
</svg>