<svg width="512" height="512" viewBox="0 0 512 512" fill="none" xmlns="http://www.w3.org/2000/svg">
<circle cx="256" cy="256" r="176" fill="#EA6262"/>
<path fill-rule="evenodd" clip-rule="evenodd" d="M314.953 195.907C319.309 200.264 319.309 207.327 314.953 211.684L271.208 255.429L314.954 299.175C319.31 303.531 319.31 310.595 314.954 314.952C310.597 319.308 303.533 319.308 299.177 314.952L255.431 271.206L211.685 314.952C207.328 319.308 200.265 319.308 195.908 314.952C191.551 310.595 191.551 303.531 195.908 299.175L239.654 255.429L195.909 211.684C191.553 207.327 191.553 200.264 195.909 195.907C200.266 191.55 207.33 191.55 211.686 195.907L255.431 239.652L299.176 195.907C303.532 191.55 310.596 191.55 314.953 195.907Z" fill="white"/>
</svg>
