<svg width="512" height="512" viewBox="0 0 512 512" fill="none" xmlns="http://www.w3.org/2000/svg">
<rect x="3" width="506" height="512" rx="85.1024" fill="#F3F3F3"/>
<path d="M155.21 417.288H95.2852L83.4714 445.024H60.5287L114.461 325.174H136.377L190.48 445.024H167.195L155.21 417.288ZM147.848 399.824L125.248 347.432L102.819 399.824H147.848ZM238.595 352.569C252.064 352.569 262.337 355.822 269.414 362.328C276.605 368.72 280.201 378.422 280.201 391.434V445.024H259.997V433.895C257.372 437.89 253.605 440.972 248.697 443.141C243.903 445.196 238.082 446.223 231.233 446.223C224.385 446.223 218.392 445.081 213.256 442.799C208.119 440.402 204.124 437.149 201.271 433.039C198.531 428.816 197.162 424.079 197.162 418.829C197.162 410.61 200.186 404.047 206.236 399.139C212.4 394.117 222.045 391.606 235.171 391.606H258.799V390.236C258.799 383.844 256.858 378.936 252.977 375.511C249.211 372.087 243.561 370.375 236.027 370.375C230.891 370.375 225.811 371.174 220.789 372.772C215.881 374.37 211.715 376.596 208.291 379.449L199.901 363.869C204.695 360.216 210.459 357.42 217.194 355.479C223.928 353.539 231.062 352.569 238.595 352.569ZM235.685 430.642C241.05 430.642 245.786 429.444 249.896 427.047C254.119 424.536 257.087 420.997 258.799 416.432V405.816H236.712C224.385 405.816 218.221 409.868 218.221 417.973C218.221 421.853 219.762 424.935 222.844 427.218C225.926 429.501 230.206 430.642 235.685 430.642Z" fill="#737373"/>
</svg>
