<svg width="512" height="512" viewBox="0 0 512 512" fill="none" xmlns="http://www.w3.org/2000/svg">
<rect x="2" width="508" height="512" rx="85.5671" fill="#5AA6FF"/>
<path fill-rule="evenodd" clip-rule="evenodd" d="M243.267 85.5625C222.016 100.97 208.195 125.997 208.195 154.253C208.195 201.079 246.155 239.04 292.982 239.04C315.57 239.04 336.095 230.207 351.292 215.806C337.417 252.671 301.827 278.898 260.111 278.898C206.322 278.898 162.718 235.293 162.718 181.504C162.718 133.46 197.506 93.5407 243.267 85.5625Z" fill="white"/>
<circle cx="297.992" cy="147.702" r="53.57" fill="white"/>
<path d="M250.547 392.115C253.904 396.533 260.549 396.533 263.906 392.115L292.401 354.604C296.597 349.081 292.658 341.142 285.722 341.142H228.731C221.795 341.142 217.856 349.081 222.051 354.604L250.547 392.115Z" fill="white"/>
<rect x="206.897" y="405.103" width="100.657" height="19.9217" rx="9.96087" fill="white"/>
</svg>
